<?xml version="1.0" standalone="no"?>
<!DOCTYPE svg PUBLIC "-//W3C//DTD SVG 20010904//EN"
 "http://www.w3.org/TR/2001/REC-SVG-20010904/DTD/svg10.dtd">
<svg version="1.0" xmlns="http://www.w3.org/2000/svg"
 width="512.000000pt" height="512.000000pt" viewBox="0 0 512.000000 512.000000"
 preserveAspectRatio="xMidYMid meet">

<g transform="translate(0.000000,512.000000) scale(0.100000,-0.100000)"
fill="#000000" stroke="none">
<path d="M2525 5108 c-44 -25 -44 -30 -45 -344 0 -285 1 -301 20 -321 10 -12
29 -24 40 -28 30 -10 75 12 89 41 7 17 11 121 11 315 l0 291 -29 29 c-31 31
-54 35 -86 17z"/>
<path d="M1245 4725 c-28 -28 -31 -54 -10 -94 35 -68 289 -458 311 -478 51
-46 124 -12 124 56 0 32 -24 76 -145 267 -80 126 -157 239 -171 252 -33 29
-78 29 -109 -3z"/>
<path d="M3827 4723 c-23 -6 -357 -506 -357 -534 0 -26 52 -79 77 -79 10 0 29
7 42 16 34 24 341 490 341 519 0 37 -10 55 -41 70 -29 15 -32 16 -62 8z"/>
<path d="M2500 4013 c-187 -9 -354 -55 -534 -146 -261 -133 -464 -342 -592
-612 -168 -354 -164 -775 10 -1132 65 -133 132 -228 251 -353 57 -61 117 -134
133 -163 64 -111 101 -266 109 -457 6 -122 8 -136 29 -157 l23 -23 634 0 634
0 23 25 c20 22 24 36 27 122 7 205 48 389 110 495 16 26 77 100 137 165 127
138 191 229 257 367 105 221 147 472 119 706 -18 148 -73 329 -136 453 -33 63
-123 193 -182 261 -215 247 -545 418 -852 441 -41 3 -91 7 -110 8 -19 2 -60 2
-90 0z m237 -168 c238 -39 444 -140 617 -305 146 -139 242 -291 300 -473 45
-140 57 -219 57 -366 -1 -309 -115 -594 -324 -804 -125 -126 -178 -207 -231
-357 -31 -84 -66 -276 -66 -356 l0 -54 -524 0 -524 0 -6 23 c-3 12 -6 43 -6
68 0 72 -28 215 -61 314 -46 137 -99 222 -226 357 -123 131 -186 223 -243 356
-243 565 -2 1221 548 1491 120 59 218 88 382 114 61 10 223 6 307 -8z"/>
<path d="M2525 3669 c-51 -31 -59 -82 -20 -121 21 -22 37 -26 113 -31 306 -22
579 -207 712 -482 56 -115 78 -191 86 -302 6 -89 19 -130 45 -143 31 -17 69
-11 94 15 22 21 25 33 25 90 0 37 -9 113 -21 168 -76 379 -369 688 -741 782
-118 29 -264 41 -293 24z"/>
<path d="M487 3889 c-58 -16 -77 -87 -34 -126 43 -39 507 -283 537 -283 61 0
94 80 53 128 -17 19 -454 262 -505 281 -13 4 -36 4 -51 0z"/>
<path d="M4590 3893 c-43 -17 -498 -267 -514 -283 -47 -46 -11 -130 53 -130
29 0 499 247 539 283 28 26 30 79 2 107 -11 11 -24 20 -29 20 -5 0 -15 2 -23
4 -7 3 -20 2 -28 -1z"/>
<path d="M1999 871 c-92 -19 -159 -98 -159 -189 0 -88 37 -147 115 -183 37
-17 76 -19 596 -19 390 0 566 3 590 11 169 57 188 284 30 361 l-46 23 -545 2
c-300 0 -561 -2 -581 -6z m1109 -163 c18 -18 14 -46 -7 -58 -13 -6 -201 -10
-541 -10 -340 0 -528 4 -541 10 -18 10 -26 50 -12 63 3 4 250 7 548 7 407 0
544 -3 553 -12z"/>
<path d="M2145 391 c-45 -11 -69 -27 -103 -65 -84 -96 -55 -243 60 -300 l52
-26 403 0 c440 0 446 1 506 58 43 41 60 81 60 142 0 61 -17 102 -60 141 -59
55 -48 54 -483 56 -223 1 -418 -2 -435 -6z m816 -173 c10 -18 8 -24 -11 -40
-21 -17 -49 -18 -384 -18 -198 0 -371 3 -383 6 -27 7 -39 40 -23 59 11 13 74
15 401 15 l388 0 12 -22z"/>
</g>
</svg>
