<?xml version="1.0" standalone="no"?>
<!DOCTYPE svg PUBLIC "-//W3C//DTD SVG 20010904//EN"
 "http://www.w3.org/TR/2001/REC-SVG-20010904/DTD/svg10.dtd">
<svg version="1.0" xmlns="http://www.w3.org/2000/svg"
 width="512.000000pt" height="512.000000pt" viewBox="0 0 512.000000 512.000000"
 preserveAspectRatio="xMidYMid meet">

<g transform="translate(0.000000,512.000000) scale(0.100000,-0.100000)"
fill="#000000" stroke="none">
<path d="M744 5104 c-71 -25 -114 -73 -184 -200 -89 -162 -178 -253 -340 -343
-136 -76 -183 -121 -205 -193 -19 -66 -19 -112 1 -170 25 -75 70 -117 200
-188 150 -82 244 -172 319 -303 86 -151 103 -175 146 -207 112 -81 275 -59
356 49 51 66 38 131 -30 147 -24 5 -34 0 -66 -34 -46 -48 -70 -62 -108 -62
-49 0 -86 32 -127 111 -109 206 -212 314 -405 423 -126 72 -151 97 -151 151 0
48 30 81 119 131 208 115 307 211 415 403 72 128 96 151 155 151 45 0 83 -40
146 -154 63 -116 146 -220 224 -281 28 -22 99 -67 157 -100 120 -67 149 -97
149 -155 0 -50 -27 -79 -125 -132 -150 -82 -278 -186 -300 -242 -12 -32 1 -71
29 -85 42 -23 69 -13 145 57 43 39 116 91 170 121 136 75 167 100 200 162 55
101 36 230 -47 310 -19 19 -82 59 -138 89 -151 81 -252 183 -345 349 -75 135
-113 174 -191 197 -58 17 -116 17 -169 -2z"/>
<path d="M2112 4752 c-61 -22 -123 -77 -155 -137 -29 -56 -28 -138 7 -330 37
-203 42 -433 13 -530 -57 -185 -207 -361 -437 -510 -93 -61 -103 -65 -530
-199 -239 -76 -455 -149 -479 -163 -101 -58 -178 -155 -212 -264 -21 -68 -25
-181 -8 -244 47 -175 618 -1962 641 -2006 41 -79 120 -156 198 -192 50 -24 81
-32 145 -35 100 -5 139 3 385 79 258 81 328 114 410 198 115 116 166 249 158
411 -4 78 -31 168 -340 1150 -185 586 -338 1072 -340 1081 -2 11 27 37 92 80
129 85 308 266 373 375 92 155 123 294 113 500 -6 127 -26 282 -52 402 -20 90
-13 133 27 166 58 49 102 44 220 -25 96 -56 172 -136 219 -233 41 -82 44 -94
94 -378 36 -207 89 -300 199 -349 42 -19 68 -23 142 -23 87 1 104 6 503 133
269 85 427 131 455 131 91 -1 166 -48 211 -131 42 -76 41 -142 -2 -231 -17
-37 -32 -79 -32 -95 0 -50 33 -95 91 -126 106 -57 149 -123 149 -228 0 -49 -6
-74 -31 -123 -53 -103 -31 -169 72 -222 89 -45 139 -128 139 -230 -1 -65 -29
-123 -89 -184 -84 -84 -82 -152 6 -234 86 -81 113 -150 92 -245 -13 -63 -61
-128 -114 -158 -22 -12 -480 -161 -1018 -331 -538 -171 -987 -318 -998 -328
-27 -24 -25 -75 4 -102 38 -36 -124 -83 1457 418 316 100 596 194 623 208 26
14 67 47 91 72 148 158 149 395 2 539 l-45 44 39 45 c22 24 52 70 67 101 25
50 28 67 28 161 0 93 -3 112 -27 162 -31 66 -104 149 -160 180 -27 16 -37 27
-32 38 42 98 46 117 42 205 -3 72 -9 102 -30 147 -31 67 -96 140 -155 175 -24
14 -43 26 -43 27 0 1 9 20 20 43 47 97 43 232 -9 338 -38 77 -102 137 -189
178 -60 28 -77 32 -157 32 -88 0 -99 -3 -495 -129 -446 -142 -485 -150 -553
-107 -67 41 -87 95 -127 346 -11 72 -30 159 -41 195 -61 192 -192 339 -385
432 -101 49 -166 57 -242 30z m-351 -2812 l334 -1055 0 -90 c0 -80 -3 -97 -32
-157 -37 -78 -101 -147 -170 -181 -63 -32 -460 -156 -522 -164 -97 -11 -212
44 -274 133 -40 57 -636 1941 -644 2035 -9 111 40 218 128 276 54 35 831 284
841 269 3 -6 156 -486 339 -1066z"/>
<path d="M1445 1191 c-218 -57 -317 -308 -195 -493 107 -162 335 -191 479 -62
100 90 136 228 90 349 -29 76 -101 155 -172 185 -55 24 -152 34 -202 21z m117
-151 c114 -32 159 -160 93 -261 -29 -45 -79 -69 -143 -69 -87 0 -152 62 -160
153 -7 82 34 144 115 172 47 17 49 17 95 5z"/>
<path d="M4404 1236 c-56 -26 -84 -58 -135 -155 -46 -88 -118 -164 -203 -213
-127 -74 -145 -87 -171 -133 -52 -87 -30 -211 47 -268 18 -13 64 -41 101 -62
101 -56 166 -120 222 -222 27 -48 66 -105 87 -125 83 -81 216 -75 294 14 16
19 50 70 74 114 55 100 123 167 228 223 146 79 195 164 161 284 -15 56 -62
102 -157 155 -111 61 -185 134 -241 240 -85 158 -183 206 -307 148z m115 -136
c10 -5 39 -47 66 -94 78 -139 158 -215 327 -310 51 -28 67 -60 49 -94 -5 -10
-50 -41 -98 -68 -117 -65 -212 -160 -277 -277 -78 -141 -109 -142 -182 -10
-64 115 -179 232 -283 288 -90 49 -101 59 -101 95 0 36 9 44 114 104 107 62
186 140 253 253 75 127 87 137 132 113z"/>
</g>
</svg>
