<?xml version="1.0" standalone="no"?>
<!DOCTYPE svg PUBLIC "-//W3C//DTD SVG 20010904//EN"
 "http://www.w3.org/TR/2001/REC-SVG-20010904/DTD/svg10.dtd">
<svg version="1.0" xmlns="http://www.w3.org/2000/svg"
 width="512.000000pt" height="512.000000pt" viewBox="0 0 512.000000 512.000000"
 preserveAspectRatio="xMidYMid meet">

<g transform="translate(0.000000,512.000000) scale(0.100000,-0.100000)"
fill="#000000" stroke="none">
<path d="M3326 5083 c-83 -173 -290 -385 -468 -478 l-58 -30 0 -135 0 -135 68
-36 c179 -97 376 -300 458 -472 l18 -37 136 0 137 0 12 27 c34 74 133 207 215
289 82 82 215 181 289 215 l27 12 0 137 0 137 -27 12 c-74 34 -207 133 -289
215 -82 82 -181 215 -215 289 l-12 27 -137 0 -136 0 -18 -37z m387 -569 c47
-38 86 -71 86 -74 0 -3 -39 -36 -86 -74 -46 -39 -117 -109 -158 -157 l-73 -87
-81 94 c-45 52 -115 122 -156 155 -41 34 -75 65 -75 69 0 4 36 37 80 74 44 37
115 107 156 156 l76 89 73 -88 c40 -48 112 -118 158 -157z"/>
<path d="M856 3414 c-190 -173 -346 -318 -346 -320 0 -3 254 -282 564 -622
l565 -617 0 -313 c1 -248 -2 -312 -11 -306 -153 87 -321 260 -409 420 l-41 74
-134 0 -134 0 -21 -42 c-94 -186 -255 -351 -451 -466 l-78 -45 0 -129 0 -129
31 -17 c207 -114 362 -263 478 -459 l43 -73 133 0 133 0 45 78 c57 98 113 169
196 251 63 61 195 161 213 161 4 0 8 -193 8 -430 l0 -430 990 0 990 0 0 925 0
926 563 616 c309 339 563 619 565 623 2 5 -153 151 -343 325 -247 225 -350
313 -358 306 -7 -5 -149 -160 -317 -344 -260 -285 -306 -332 -311 -314 -4 12
-14 49 -24 82 -88 305 -362 532 -682 564 -395 40 -765 -219 -858 -601 -14 -56
-20 -68 -29 -57 -17 24 -617 679 -621 679 -2 0 -159 -142 -349 -316z m1924
-24 c245 -72 400 -345 335 -593 -59 -228 -248 -377 -480 -379 -372 -3 -616
384 -451 717 22 45 57 94 92 129 138 138 313 181 504 126z m-1120 -598 c232
-255 447 -483 478 -508 137 -108 308 -166 492 -166 187 0 358 59 495 169 33
27 260 268 504 535 l445 487 65 -59 c36 -33 94 -85 129 -117 l64 -58 -506
-554 -506 -554 0 -503 0 -504 -690 0 -690 0 0 504 0 504 -486 533 c-268 294
-495 543 -505 555 -19 20 -18 21 109 136 l127 117 26 -27 c14 -15 216 -235
449 -490z m-516 -1542 c49 -54 133 -133 191 -178 l30 -23 -45 -37 c-57 -46
-196 -184 -241 -241 l-36 -43 -50 63 c-52 66 -144 157 -223 221 l-45 37 30 22
c52 40 215 202 253 252 l36 47 26 -32 c14 -18 47 -58 74 -88z m2174 -772 l2
-178 -690 0 -690 0 0 173 c0 96 3 177 7 180 3 4 313 6 687 5 l681 -3 3 -177z"/>
</g>
</svg>
