<?xml version="1.0" standalone="no"?>
<!DOCTYPE svg PUBLIC "-//W3C//DTD SVG 20010904//EN"
 "http://www.w3.org/TR/2001/REC-SVG-20010904/DTD/svg10.dtd">
<svg version="1.0" xmlns="http://www.w3.org/2000/svg"
 width="512.000000pt" height="512.000000pt" viewBox="0 0 512.000000 512.000000"
 preserveAspectRatio="xMidYMid meet">

<g transform="translate(0.000000,512.000000) scale(0.100000,-0.100000)"
fill="#000000" stroke="none">
<path d="M2511 5106 c-45 -25 -50 -49 -51 -234 0 -131 3 -180 14 -201 35 -66
137 -66 172 0 18 36 20 355 2 394 -22 48 -88 68 -137 41z"/>
<path d="M818 4404 c-15 -8 -35 -28 -44 -45 -28 -56 -13 -83 125 -221 126
-126 128 -128 173 -128 63 0 98 35 98 97 0 43 -3 48 -117 165 -107 109 -159
149 -195 148 -7 -1 -25 -7 -40 -16z"/>
<path d="M4213 4404 c-17 -9 -83 -69 -147 -134 -113 -115 -116 -120 -116 -163
0 -62 35 -97 98 -97 45 0 47 2 173 128 138 138 153 165 124 221 -15 30 -60 61
-87 61 -7 0 -27 -7 -45 -16z"/>
<path d="M2317 4210 c-58 -15 -135 -57 -183 -102 -46 -42 -114 -164 -114 -204
0 -34 -13 -36 -66 -12 -40 18 -68 23 -144 23 -86 0 -101 -3 -162 -32 -93 -44
-151 -100 -196 -191 l-37 -76 -3 -257 -3 -258 -64 -30 c-90 -41 -148 -99 -193
-189 l-37 -76 -3 -450 c-3 -484 1 -550 45 -691 71 -225 246 -452 475 -612 l78
-55 0 -458 c0 -493 1 -499 51 -526 40 -20 358 -20 398 0 66 35 66 137 0 172
-19 10 -62 14 -139 14 l-110 0 0 443 c-1 338 -4 447 -13 465 -7 12 -42 40 -77
62 -267 164 -444 395 -495 645 -13 68 -15 146 -13 521 l3 440 27 41 c15 22 44
51 65 64 l38 24 578 3 c317 1 577 1 577 -1 0 -2 -9 -30 -20 -62 -55 -159 -185
-276 -355 -320 -43 -11 -111 -15 -248 -15 -205 0 -233 -6 -255 -55 -16 -34
-15 -60 3 -94 18 -36 51 -48 145 -55 136 -10 261 -52 372 -125 213 -139 345
-362 364 -611 7 -94 19 -127 55 -145 75 -39 149 10 149 99 0 248 237 486 485
486 66 0 115 43 115 100 0 33 -26 75 -55 88 -64 29 -223 1 -355 -64 -79 -39
-110 -62 -184 -136 -49 -48 -90 -87 -91 -86 -2 2 -16 31 -33 64 -62 123 -223
307 -312 354 -28 15 -25 26 13 41 108 43 256 174 317 282 l32 57 28 -20 c16
-12 55 -33 87 -48 55 -26 66 -27 209 -27 l152 0 27 -63 c39 -90 101 -154 193
-199 72 -36 81 -38 171 -38 78 0 105 5 145 23 27 12 51 22 53 22 3 0 3 -120 0
-267 -5 -290 -10 -323 -68 -451 -81 -179 -243 -352 -445 -476 -34 -20 -66 -48
-73 -62 -8 -17 -11 -158 -11 -464 l0 -440 -110 0 c-123 0 -158 -11 -178 -55
-23 -51 -7 -107 39 -131 40 -20 358 -20 398 0 50 27 51 33 51 526 l0 458 83
58 c45 32 127 103 183 158 187 187 291 382 324 611 8 56 10 294 8 786 l-3 705
-37 76 c-45 91 -103 147 -196 191 -61 29 -76 32 -162 32 -76 0 -104 -5 -144
-23 -53 -24 -66 -22 -66 12 0 41 -68 162 -116 206 -25 23 -75 56 -112 73 -61
29 -76 32 -162 32 -76 0 -104 -5 -144 -23 -53 -24 -66 -22 -66 12 0 41 -68
162 -116 206 -70 64 -158 101 -252 106 -42 2 -94 -1 -115 -6z m203 -224 c21
-13 48 -42 61 -63 l24 -38 3 -387 3 -388 -201 0 -200 0 0 368 c0 227 4 381 11
405 13 46 76 113 121 126 53 16 135 6 178 -23z m-600 -300 c21 -13 48 -42 61
-63 23 -37 24 -46 27 -275 l3 -238 -200 0 -201 0 0 218 c0 122 5 234 11 255
13 46 76 113 121 126 53 16 135 6 178 -23z m1200 0 c21 -13 48 -42 61 -63 24
-38 24 -38 27 -415 l3 -377 -22 -11 c-14 -8 -61 -11 -133 -8 -128 4 -167 20
-214 91 l-27 40 -3 298 c-2 196 1 312 8 339 13 49 75 115 122 129 53 16 135 6
178 -23z m600 -300 c21 -13 48 -42 61 -63 24 -38 24 -39 24 -359 l0 -320 -27
-41 c-41 -62 -90 -88 -168 -88 -78 0 -127 26 -168 88 l-27 40 -3 298 c-2 196
1 312 8 339 13 49 75 115 122 129 53 16 135 6 178 -23z"/>
<path d="M51 2646 c-67 -37 -65 -143 4 -174 40 -18 417 -16 454 2 66 35 66
137 0 172 -39 19 -422 20 -458 0z"/>
<path d="M4611 2646 c-67 -37 -65 -143 4 -174 40 -18 417 -16 454 2 66 35 66
137 0 172 -39 19 -422 20 -458 0z"/>
<path d="M2511 186 c-87 -48 -50 -186 49 -186 51 0 100 49 100 99 0 75 -83
124 -149 87z"/>
</g>
</svg>
