<?xml version="1.0" standalone="no"?>
<!DOCTYPE svg PUBLIC "-//W3C//DTD SVG 20010904//EN"
 "http://www.w3.org/TR/2001/REC-SVG-20010904/DTD/svg10.dtd">
<svg version="1.0" xmlns="http://www.w3.org/2000/svg"
 width="512.000000pt" height="512.000000pt" viewBox="0 0 512.000000 512.000000"
 preserveAspectRatio="xMidYMid meet">

<g transform="translate(0.000000,512.000000) scale(0.100000,-0.100000)"
fill="#000000" stroke="none">
<path d="M2305 4473 c-261 -55 -460 -231 -542 -478 -25 -73 -27 -94 -27 -230 0 -143 1 -155 32 -246 18 -53 32 -111 32 -130 1 -93 57 -255 126 -361 49 -76 150 -180 213 -218 26 -16 41 -32 41 -46 0 -19 -17 -25 -170 -62 -93 -23 -222 -58 -287 -78 -65 -20 -125 -38 -134 -41 -10 -3 -25 11 -44 38 -38 59 -109 133 -167 175 l-48 35 36 71 c87 172 84 386 -8 561 -47 89 -165 205 -256 251 -102 51 -170 67 -287 67 -148 0 -251 -34 -372 -126 -148 -111 -233 -286 -234 -482 0 -108 20 -194 65 -279 l33 -62 -71 -58 c-90 -76 -166 -186 -202 -296 -26 -79 -28 -94 -32 -322 -3 -175 0 -251 9 -285 17 -59 88 -132 145 -149 30 -9 173 -12 523 -12 378 0 481 -3 481 -12 0 -7 -7 -53 -15 -103 -9 -57 -15 -161 -15 -286 0 -188 1 -197 25 -245 28 -57 87 -100 149 -109 22 -4 187 -5 366 -3 l325 3 63 32 64 32 186 -183 c103 -101 197 -188 209 -195 12 -6 39 -11 59 -11 36 0 49 11 230 192 l193 191 63 -29 63 -29 330 -3 c223 -2 344 0 375 8 58 15 105 51 131 102 20 39 21 51 15 302 -3 144 -8 280 -12 304 l-6 42 488 0 489 0 51 24 c60 28 107 82 124 141 8 29 11 115 8 281 -4 228 -6 243 -32 322 -36 110 -112 220 -202 296 l-71 58 33 62 c85 161 88 372 8 542 -76 162 -222 282 -399 329 -78 21 -232 21 -309 0 -101 -27 -194 -83 -276 -165 -190 -190 -233 -466 -110 -710 17 -34 30 -63 28 -64 -2 -1 -16 -10 -33 -21 -50 -32 -126 -107 -167 -168 -30 -44 -44 -57 -56 -52 -54 21 -266 81 -412 116 -196 48 -202 54 -115 114 182 125 300 336 334 595 6 41 19 118 30 170 23 105 28 262 11 351 -34 183 -185 333 -375 371 -45 9 -73 22 -113 55 -114 93 -241 133 -411 132 -58 0 -137 -7 -176 -16z m318 -148 c81 -21 132 -50 194 -108 51 -48 58 -51 123 -58 178 -19 300 -153 300 -329 l0 -48 -97 97 c-106 104 -175 155 -234 171 -48 13 -76 1 -111 -50 -53 -76 -133 -93 -307 -65 -264 42 -427 -9 -561 -177 l-45 -57 -3 51 c-4 69 23 197 59 276 39 86 147 194 242 240 138 68 313 90 440 57z m344 -484 c110 -87 188 -210 214 -338 11 -53 10 -76 -4 -155 -45 -255 -239 -457 -493 -514 -191 -42 -397 23 -546 172 -114 113 -175 246 -185 399 -5 79 -4 81 38 165 78 156 185 231 329 232 36 0 85 -6 110 -13 27 -8 95 -13 170 -13 140 0 205 18 270 73 19 17 38 30 42 31 3 0 28 -17 55 -39z m1458 -223 c69 -17 152 -68 210 -129 214 -225 152 -590 -125 -729 -156 -78 -345 -62 -482 41 -110 82 -176 202 -185 340 -10 137 37 261 136 359 117 117 278 160 446 118z m-3463 -9 c167 -56 279 -189 310 -367 49 -287 -203 -556 -496 -529 -216 20 -390 189 -415 402 -25 222 102 424 314 497 73 25 208 24 287 -3z m-499 -937 c46 -35 56 -52 173 -302 69 -146 134 -273 146 -282 24 -21 67 -23 91 -5 9 6 74 137 145 290 108 234 134 283 166 309 37 30 39 30 69 16 49 -24 121 -92 157 -148 l33 -51 -24 -16 c-35 -24 -87 -81 -115 -124 -38 -60 -60 -143 -89 -326 l-28 -173 -494 0 -494 0 -24 25 c-25 24 -25 24 -25 237 0 277 17 347 118 474 34 43 122 114 141 114 3 0 28 -17 54 -38z m2102 -2 c67 0 123 6 168 19 l67 18 0 -36 c0 -44 -29 -108 -61 -138 -36 -33 -103 -53 -174 -53 -71 0 -138 20 -174 53 -32 30 -61 94 -61 138 l0 36 67 -18 c45 -13 101 -19 168 -19z m1377 7 c30 -26 60 -82 163 -307 69 -151 133 -281 142 -287 22 -17 64 -16 88 1 11 8 76 134 145 281 121 259 127 268 177 307 51 39 52 39 82 23 50 -25 133 -116 168 -181 55 -103 63 -154 63 -392 0 -213 0 -213 -25 -237 l-24 -25 -493 0 -494 0 -26 190 c-19 141 -33 203 -52 245 -34 76 -81 138 -133 179 l-43 33 26 39 c48 72 154 164 188 164 6 0 28 -15 48 -33z m-1728 -141 c33 -67 109 -139 184 -174 51 -24 68 -27 172 -27 106 0 120 2 178 29 75 35 152 113 178 182 14 38 21 44 38 40 12 -3 45 -10 73 -16 l52 -11 -193 -257 c-106 -142 -204 -262 -217 -268 -13 -6 -45 -27 -70 -47 l-46 -35 -31 24 c-17 14 -49 35 -71 47 -31 18 -86 84 -231 277 -104 139 -189 255 -187 256 4 4 117 32 133 33 7 1 23 -23 38 -53z m-1274 27 c0 -2 -18 -42 -41 -90 -23 -49 -48 -103 -56 -122 l-14 -34 -26 54 c-14 30 -40 86 -57 124 l-33 70 114 0 c62 0 113 -1 113 -2z m3460 -18 c-5 -11 -31 -67 -59 -125 -46 -95 -51 -102 -60 -80 -5 14 -30 69 -55 123 -25 54 -46 99 -46 100 0 1 51 2 114 2 110 0 113 -1 106 -20z m-2364 -232 l155 -208 -56 -7 c-159 -21 -306 -157 -361 -337 -8 -25 -17 -79 -21 -118 l-6 -73 -228 0 c-211 0 -227 1 -223 18 2 9 24 150 49 312 52 332 64 368 144 443 27 25 81 62 121 82 67 34 229 93 257 94 7 1 83 -92 169 -206z m1321 176 c193 -61 301 -136 352 -242 26 -54 35 -98 70 -358 23 -163 41 -301 41 -308 0 -8 -62 -11 -219 -11 l-219 0 -7 73 c-24 245 -177 424 -388 455 l-48 7 155 208 c86 114 158 207 161 207 3 0 49 -14 102 -31z m-1005 -572 c31 -13 80 -47 111 -75 90 -81 116 -81 208 4 82 75 134 97 234 98 72 1 88 -3 147 -32 101 -50 158 -141 174 -280 l6 -61 -38 -6 c-137 -23 -237 -93 -285 -199 -21 -46 -25 -140 -9 -196 l10 -35 -173 -172 -172 -173 -177 177 -178 178 12 62 c10 53 9 72 -6 124 -38 137 -125 210 -280 234 l-39 6 6 62 c13 131 73 232 167 279 66 33 87 37 166 33 40 -1 82 -12 116 -28z m-393 -507 c73 -21 131 -110 115 -177 -12 -50 -44 -91 -88 -112 -40 -20 -59 -21 -356 -21 -278 0 -316 2 -332 17 -16 14 -18 33 -18 160 l0 143 323 0 c181 0 337 -4 356 -10z m1871 -145 c0 -135 -1 -145 -20 -155 -14 -8 -125 -10 -345 -8 -310 3 -325 4 -352 24 -97 72 -98 205 -1 264 31 19 51 20 376 20 l342 0 0 -145z"/>
</g>
</svg>
