<?xml version="1.0" standalone="no"?>
<!DOCTYPE svg PUBLIC "-//W3C//DTD SVG 20010904//EN"
 "http://www.w3.org/TR/2001/REC-SVG-20010904/DTD/svg10.dtd">
<svg version="1.0" xmlns="http://www.w3.org/2000/svg"
 width="512.000000pt" height="512.000000pt" viewBox="0 0 512.000000 512.000000"
 preserveAspectRatio="xMidYMid meet">

<g transform="translate(0.000000,512.000000) scale(0.100000,-0.100000)"
fill="#000000" stroke="none">
<path d="M3844 4597 c-12 -7 -148 -131 -303 -276 -154 -146 -302 -278 -327
-294 -72 -45 -113 -55 -256 -66 -218 -17 -359 -65 -483 -166 l-56 -46 -47 40
c-92 77 -209 127 -352 151 l-65 11 -255 254 c-140 139 -266 258 -279 265 -14
7 -38 9 -60 5 -31 -5 -120 -90 -693 -663 -712 -712 -692 -689 -655 -758 9 -16
202 -215 430 -443 l415 -414 -48 -63 c-64 -83 -84 -145 -78 -243 10 -165 120
-289 285 -321 l61 -12 7 -47 c9 -67 59 -163 106 -206 49 -44 134 -85 192 -93
47 -6 57 -15 57 -54 0 -57 42 -141 96 -196 60 -59 123 -92 198 -101 45 -5 51
-9 54 -31 10 -92 60 -191 123 -244 100 -85 248 -106 362 -54 32 15 78 44 102
64 l45 36 43 -34 c59 -49 111 -75 175 -89 200 -41 391 106 414 321 3 22 9 26
56 31 76 10 154 52 207 112 46 53 85 137 85 185 0 39 10 48 59 55 63 8 163 61
206 108 44 50 81 127 90 190 l7 47 61 12 c167 32 276 157 285 325 5 102 -19
172 -85 245 l-46 52 560 561 c309 309 566 573 573 586 7 14 9 38 5 60 -6 31
-82 111 -578 608 -314 315 -586 580 -603 588 -38 18 -62 19 -90 2z m850 -1398
l-181 -181 -489 502 c-269 276 -489 506 -489 511 0 5 79 83 175 174 l175 164
495 -495 495 -494 -181 -181z m-3119 841 l190 -190 -568 -568 -567 -567 -192
193 -193 192 565 565 c311 311 567 565 570 565 3 0 91 -86 195 -190z m2305
-659 l491 -505 -268 -268 -268 -268 -422 422 -422 422 44 48 c60 67 65 115 18
162 -26 26 -52 34 -93 27 -16 -2 -119 -96 -300 -276 -151 -150 -286 -278 -300
-285 -14 -8 -50 -13 -81 -13 -103 0 -184 71 -196 174 -11 93 2 110 285 390
321 317 343 331 597 349 187 14 276 39 365 104 19 14 40 24 47 23 7 -1 233
-229 503 -506z m-1838 350 c82 -21 155 -56 203 -95 l29 -25 -150 -153 c-83
-85 -164 -174 -179 -198 -102 -162 -80 -364 54 -498 122 -122 294 -149 458
-73 52 25 94 60 226 190 l163 160 521 -522 c286 -287 526 -532 532 -544 19
-37 13 -107 -12 -144 -30 -45 -100 -74 -153 -64 -34 6 -73 40 -300 266 -259
257 -261 259 -303 259 -81 0 -128 -84 -85 -150 9 -14 126 -135 259 -270 257
-259 265 -270 251 -345 -9 -47 -63 -102 -109 -110 -87 -17 -92 -13 -362 255
-137 136 -260 253 -272 259 -51 26 -105 3 -129 -55 -10 -25 -11 -40 -3 -61 5
-15 122 -140 259 -278 268 -270 282 -289 260 -364 -21 -75 -70 -113 -146 -113
-53 0 -91 22 -159 91 -42 43 -51 60 -62 111 -17 84 -49 143 -108 199 -55 52
-141 91 -200 91 -19 0 -35 1 -35 3 0 2 -5 30 -11 62 -28 151 -138 260 -290
287 -58 10 -59 11 -59 44 0 83 -80 211 -164 264 -39 24 -120 50 -156 50 -23 0
-26 6 -37 59 -15 83 -48 144 -108 200 -71 68 -145 94 -250 89 -117 -5 -166
-31 -300 -161 l-110 -106 -118 117 -117 117 587 587 c324 324 593 588 599 588
6 0 45 -9 86 -19z m-542 -1336 c38 -20 68 -60 76 -102 14 -72 -3 -96 -223
-315 -179 -178 -213 -207 -247 -214 -53 -9 -123 20 -153 65 -27 40 -31 108 -9
149 16 30 390 404 421 421 29 15 101 13 135 -4z m358 -355 c65 -40 92 -133 58
-198 -8 -15 -104 -116 -213 -224 -213 -211 -225 -219 -310 -203 -45 8 -98 61
-108 106 -17 75 -6 91 203 303 108 109 211 207 227 217 39 25 101 24 143 -1z
m324 -340 c79 -22 125 -119 93 -196 -17 -42 -354 -389 -413 -425 -60 -38 -161
-20 -197 35 -27 41 -36 87 -24 130 9 34 45 76 202 235 179 181 241 230 287
231 8 0 32 -5 52 -10z m378 -365 c38 -20 68 -60 76 -102 14 -72 -3 -96 -223
-315 -220 -218 -239 -231 -310 -213 -90 22 -141 133 -99 213 16 30 390 404
421 421 29 15 101 13 135 -4z m242 -372 c36 -39 48 -66 48 -108 0 -139 -159
-205 -255 -105 l-28 30 99 104 c54 57 102 104 105 105 3 1 17 -11 31 -26z"/>
<path d="M3952 3975 c-57 -47 -44 -133 23 -161 102 -42 184 82 104 157 -40 37
-86 39 -127 4z"/>
<path d="M4243 3695 c-38 -16 -53 -42 -53 -91 0 -35 9 -47 128 -166 119 -119
131 -128 166 -128 54 0 96 43 96 100 0 39 -6 47 -112 157 -98 100 -155 144
-185 143 -4 -1 -22 -7 -40 -15z"/>
<path d="M1167 3765 c-41 -42 -42 -97 -1 -138 41 -42 97 -42 138 0 35 35 35
90 0 132 -35 41 -98 44 -137 6z"/>
<path d="M905 3506 c-16 -8 -103 -88 -192 -179 -159 -160 -163 -166 -163 -207
0 -57 41 -100 96 -100 36 0 48 10 216 178 167 167 178 180 178 215 0 48 -23
82 -62 96 -38 13 -36 13 -73 -3z"/>
</g>
</svg>
