<?xml version="1.0" standalone="no"?>
<!DOCTYPE svg PUBLIC "-//W3C//DTD SVG 20010904//EN"
 "http://www.w3.org/TR/2001/REC-SVG-20010904/DTD/svg10.dtd">
<svg version="1.0" xmlns="http://www.w3.org/2000/svg"
 width="64.000000pt" height="64.000000pt" viewBox="0 0 64.000000 64.000000"
 preserveAspectRatio="xMidYMid meet">

<g transform="translate(0.000000,64.000000) scale(0.100000,-0.100000)"
fill="#000000" stroke="none">
<path d="M151 601 c-29 -56 -27 -71 9 -71 l31 0 -16 -30 c-15 -30 -13 -50 5
-50 13 0 61 96 53 104 -4 3 -17 6 -31 6 -21 0 -23 3 -18 23 20 63 -4 76 -33
18z"/>
<path d="M257 443 c-89 -127 -134 -200 -127 -207 6 -6 29 -5 65 3 31 7 59 10
62 7 3 -3 -8 -56 -26 -116 -30 -104 -32 -130 -11 -130 17 0 301 393 291 403
-6 6 -34 5 -76 -3 -36 -7 -68 -11 -70 -8 -2 2 9 49 25 103 32 109 37 145 18
145 -7 0 -75 -89 -151 -197z m74 -19 c-12 -41 -17 -72 -11 -78 5 -5 27 -4 54
3 81 20 81 17 -10 -104 -48 -64 -88 -114 -90 -112 -2 2 5 32 16 68 28 91 27
103 -10 95 -16 -3 -44 -9 -61 -13 l-32 -6 53 74 c29 41 64 91 78 112 14 20 27
35 29 33 3 -2 -5 -35 -16 -72z"/>
<path d="M433 178 c-15 -19 -43 -75 -43 -88 0 -5 14 -10 31 -10 26 0 30 -3 24
-17 -30 -73 -1 -88 33 -18 29 59 28 65 -8 65 -34 0 -34 0 -18 35 13 30 -1 55
-19 33z"/>
</g>
</svg>
