<?xml version="1.0" standalone="no"?>
<!DOCTYPE svg PUBLIC "-//W3C//DTD SVG 20010904//EN"
 "http://www.w3.org/TR/2001/REC-SVG-20010904/DTD/svg10.dtd">
<svg version="1.0" xmlns="http://www.w3.org/2000/svg"
 viewBox="0 0 512.000000 512.000000"
 preserveAspectRatio="xMidYMid meet">

<g transform="translate(0.000000,512.000000) scale(0.100000,-0.100000)"
fill="#000000" stroke="none">
<path d="M4287 5109 c-26 -15 -47 -70 -47 -120 0 -183 -147 -399 -330 -487
-86 -41 -163 -62 -226 -62 -79 0 -134 -49 -119 -107 10 -43 41 -59 133 -71
152 -18 265 -70 364 -167 105 -102 160 -219 178 -375 11 -99 35 -134 91 -132
56 1 78 35 89 133 15 149 70 266 171 368 102 102 212 153 368 173 51 6 94 17
105 27 30 26 38 58 22 95 -15 36 -55 56 -112 56 -108 0 -270 69 -363 155 -112
104 -173 226 -190 380 -6 46 -15 94 -21 105 -19 35 -77 50 -113 29z m80 -486
c47 -75 174 -200 241 -239 l54 -31 -65 -41 c-80 -50 -184 -154 -228 -227 -18
-30 -36 -55 -40 -55 -3 0 -22 26 -42 58 -45 73 -142 170 -223 222 l-63 42 74
49 c83 56 183 159 223 231 15 26 28 48 30 48 1 0 19 -26 39 -57z"/>
<path d="M1119 4165 c-227 -55 -395 -231 -445 -466 -36 -170 14 -363 130 -499
l30 -35 -25 -3 c-116 -12 -85 13 -371 -305 -145 -161 -282 -314 -305 -342
-118 -143 -140 -309 -63 -472 26 -56 63 -98 281 -318 138 -139 264 -259 279
-265 49 -20 79 -2 140 84 l55 77 5 -786 5 -787 28 -24 28 -24 275 0 c287 0
322 5 338 45 3 9 6 329 6 711 l0 694 300 0 300 0 0 -215 0 -215 -145 0 c-145
0 -146 0 -170 -26 l-25 -27 0 -454 0 -455 29 -29 29 -29 881 0 880 0 28 24 28
24 0 460 0 460 -24 26 -24 26 -401 2 -401 3 -5 390 c-4 242 -10 402 -16 420
-37 101 -121 203 -204 245 -91 46 -119 50 -422 50 l-288 0 0 238 0 237 586
418 c599 428 613 440 599 494 -5 22 -224 323 -273 376 -54 58 -53 58 -538
-277 -241 -167 -440 -303 -442 -301 -2 2 3 16 11 32 46 89 61 272 31 386 -43
167 -161 312 -314 385 -47 22 -109 45 -138 51 -70 15 -194 13 -263 -4z m222
-165 c77 -15 155 -57 216 -118 91 -90 128 -190 121 -325 -9 -178 -124 -324
-296 -377 -350 -108 -662 250 -508 585 31 68 110 153 174 188 94 51 189 66
293 47z m1428 -381 c41 -56 70 -104 65 -108 -5 -4 -254 -183 -554 -396 -300
-213 -556 -398 -570 -412 l-25 -23 -3 -305 c-2 -201 1 -318 8 -345 18 -68 28
-70 408 -70 l328 0 52 -26 c57 -28 96 -69 123 -129 17 -36 19 -74 19 -412 l0
-373 -170 0 -170 0 0 274 0 273 -26 27 -27 26 -413 0 -413 0 -28 -24 -28 -24
-3 -701 -2 -701 -170 0 -170 0 0 1210 0 1211 -25 24 c-17 18 -35 25 -61 25
-36 0 -49 -11 -226 -187 -104 -104 -192 -199 -195 -212 -3 -13 -2 -34 3 -47 5
-13 74 -92 153 -175 l144 -150 -34 -47 c-18 -26 -51 -71 -72 -101 l-40 -54
-212 214 c-204 205 -214 217 -230 273 -21 70 -15 132 18 193 12 23 144 177
292 342 l270 300 122 1 122 0 126 -245 c70 -135 135 -250 145 -255 30 -16 78
-12 100 10 11 11 76 131 144 268 l124 248 508 352 c280 194 511 352 514 352 3
-1 38 -46 79 -101z m-1365 -741 c-31 -62 -58 -115 -60 -117 -3 -3 -114 214
-114 224 0 3 52 5 115 5 l115 0 -56 -112z m-574 -665 l0 -136 -26 24 c-14 13
-44 46 -67 72 l-40 48 64 65 c35 35 65 64 66 64 2 0 3 -62 3 -137z m2650
-1703 l0 -340 -770 0 -770 0 0 340 0 340 770 0 770 0 0 -340z"/>
<path d="M3340 3994 c-135 -90 -245 -168 -245 -172 0 -12 79 -132 88 -132 7 0
482 313 500 330 10 9 -73 140 -88 139 -5 0 -120 -74 -255 -165z"/>
<path d="M3515 3429 c-231 -171 -419 -316 -419 -323 2 -19 85 -127 95 -124 5
2 198 141 429 311 l419 308 -51 69 c-28 39 -51 70 -52 69 0 0 -190 -140 -421
-310z"/>
<path d="M2772 2884 l-112 -84 42 -61 c24 -34 48 -63 55 -66 6 -2 61 32 122
77 l111 82 -41 59 c-23 32 -47 63 -53 68 -7 6 -50 -20 -124 -75z"/>
</g>
</svg>
