<?xml version="1.0" standalone="no"?>
<!DOCTYPE svg PUBLIC "-//W3C//DTD SVG 20010904//EN"
 "http://www.w3.org/TR/2001/REC-SVG-20010904/DTD/svg10.dtd">
<svg version="1.0" xmlns="http://www.w3.org/2000/svg"
 width="512.000000pt" height="512.000000pt" viewBox="0 0 512.000000 512.000000"
 preserveAspectRatio="xMidYMid meet">

<g transform="translate(0.000000,512.000000) scale(0.100000,-0.100000)"
fill="#000000" stroke="none">
<path d="M4241 4933 c-56 -12 -90 -49 -101 -113 l-5 -35 -547 -3 -547 -2 -20
-26 c-12 -15 -21 -41 -21 -58 0 -17 34 -115 74 -217 l75 -186 -75 -189 c-40
-104 -74 -204 -74 -222 0 -22 8 -41 25 -57 l24 -25 546 0 545 0 0 -454 0 -455
-223 -3 c-223 -3 -224 -3 -264 -30 -71 -47 -78 -75 -78 -298 0 -143 4 -204 14
-227 11 -28 11 -38 0 -65 -10 -24 -14 -85 -14 -223 0 -138 4 -199 14 -222 11
-28 11 -38 0 -65 -10 -24 -14 -85 -14 -223 0 -138 4 -199 14 -222 11 -28 11
-38 0 -65 -10 -24 -14 -85 -14 -223 0 -138 4 -199 14 -222 11 -28 11 -38 0
-65 -10 -24 -14 -85 -14 -228 0 -165 3 -200 17 -226 24 -44 72 -81 118 -94 27
-7 246 -10 663 -8 l623 3 43 28 c72 48 81 80 81 300 0 142 -4 196 -14 222 -13
31 -13 39 0 70 10 26 14 81 14 220 0 139 -4 194 -14 220 -13 31 -13 39 0 70
10 26 14 81 14 220 0 139 -4 194 -14 220 -13 31 -13 39 0 70 20 49 20 391 0
440 -13 31 -13 39 0 70 10 26 14 80 14 222 0 161 -3 194 -19 228 -43 94 -80
105 -336 105 l-205 0 0 199 c0 185 -1 200 -21 225 -26 33 -79 36 -109 6 -19
-19 -20 -33 -20 -225 l0 -205 -60 0 -60 0 0 950 0 951 58 -3 57 -3 5 -617 c5
-673 2 -639 62 -653 22 -6 33 -1 58 23 l30 30 0 629 c0 578 -1 631 -18 662
-31 63 -60 75 -175 77 -56 1 -113 0 -126 -3z m-101 -643 l0 -340 -480 0 c-264
0 -480 2 -480 5 0 2 27 73 60 157 33 84 60 165 60 180 0 15 -27 95 -60 178
-33 83 -60 152 -60 155 0 3 216 5 480 5 l480 0 0 -340z m825 -1730 l0 -175
-617 -3 -618 -2 0 173 c0 96 3 177 7 180 3 4 281 6 617 5 l611 -3 0 -175z m-7
-338 c9 -7 12 -49 10 -178 l-3 -169 -617 -3 -618 -2 0 173 c0 96 3 177 7 180
9 10 1206 8 1221 -1z m0 -510 c9 -7 12 -49 10 -178 l-3 -169 -617 -3 -618 -2
0 173 c0 96 3 177 7 180 9 10 1206 8 1221 -1z m1 -516 c8 -9 11 -65 9 -177
l-3 -164 -617 -3 -618 -2 0 174 c0 130 3 176 13 179 6 3 280 6 608 6 496 1
598 -1 608 -13z m9 -675 c2 -112 -1 -168 -9 -177 -10 -12 -112 -14 -604 -14
-327 0 -600 3 -609 6 -14 5 -16 31 -16 180 l0 174 618 -2 617 -3 3 -164z"/>
<path d="M984 4349 c-120 -16 -240 -105 -292 -217 -24 -50 -27 -69 -27 -162 0
-95 3 -110 28 -163 35 -71 107 -144 173 -176 63 -31 61 -29 36 -47 -43 -30
-75 -101 -80 -178 l-5 -71 -374 -320 c-418 -358 -400 -337 -390 -469 5 -82 34
-120 89 -120 22 0 141 52 343 148 171 82 316 150 323 153 9 4 12 -57 12 -288
l-1 -294 -82 -390 -83 -390 -264 -5 c-280 -5 -298 -8 -342 -57 -41 -45 -48
-85 -48 -278 0 -139 4 -194 14 -220 13 -31 13 -39 0 -70 -10 -26 -14 -80 -14
-222 0 -220 9 -252 81 -300 l43 -28 623 -3 c417 -2 636 1 663 8 46 13 94 50
118 94 14 26 17 61 17 226 0 143 -4 204 -14 228 -11 27 -11 37 0 65 10 23 14
84 14 227 0 215 -4 232 -65 283 -46 39 -90 47 -262 47 -87 0 -158 2 -158 5 0
3 91 161 202 352 l203 347 3 149 c2 81 7 147 11 145 4 -2 84 -56 179 -121
l171 -119 27 -86 c14 -48 32 -106 39 -129 l13 -41 -36 -24 c-75 -49 -77 -55
-80 -289 -2 -162 0 -216 11 -237 11 -23 11 -33 1 -57 -19 -45 -19 -421 0 -457
13 -24 13 -32 0 -57 -12 -25 -15 -70 -12 -240 3 -193 5 -212 24 -237 29 -40
65 -64 110 -74 51 -12 1217 -12 1268 0 45 10 81 34 110 74 19 25 21 44 24 237
3 170 0 215 -12 240 -13 25 -13 33 0 57 19 37 19 412 0 457 -10 24 -10 34 1
55 19 36 18 408 -1 453 -17 42 -66 83 -114 97 -20 5 -105 10 -188 10 -138 0
-154 -2 -178 -21 -33 -26 -36 -79 -6 -109 18 -18 33 -20 169 -20 82 0 156 -3
165 -6 14 -5 16 -31 16 -180 l0 -174 -620 0 -620 0 0 174 c0 149 2 175 16 180
9 3 154 6 323 6 349 0 351 0 351 70 0 30 -6 43 -26 59 -23 18 -41 21 -140 21
-63 0 -114 2 -114 5 0 18 -183 671 -194 693 -8 15 -165 167 -349 337 l-335
310 -1 89 -1 88 313 320 c171 176 320 334 330 351 24 44 24 188 -1 237 -20 42
-76 65 -117 50 -13 -5 -146 -95 -294 -200 -148 -104 -271 -190 -274 -190 -2 0
-7 26 -10 59 -19 209 -216 359 -433 330z m176 -181 c198 -120 112 -428 -120
-428 -232 0 -318 308 -120 428 46 27 63 32 120 32 57 0 74 -5 120 -32z m764
-93 c-33 -36 -182 -190 -331 -344 l-273 -279 0 -669 0 -668 -218 -375 -219
-375 -36 -3 c-21 -2 -37 1 -37 6 0 5 36 178 80 386 l80 377 0 648 c0 637 0
649 20 674 11 14 188 144 393 288 205 145 422 298 482 340 61 43 112 73 114
68 1 -6 -23 -39 -55 -74z m-1111 -1175 c-7 -7 -75 -39 -493 -237 -63 -30 -111
-51 -107 -46 5 4 142 123 305 263 l297 256 3 -115 c1 -63 -1 -118 -5 -121z
m995 -199 l219 -204 82 -302 c44 -166 81 -307 81 -314 0 -7 -22 -11 -63 -11
l-63 0 -53 167 c-28 93 -56 172 -62 178 -5 5 -114 82 -242 170 l-232 160 -3
233 -2 234 59 -54 c32 -29 158 -145 279 -257z m-434 -1497 c14 -5 16 -31 16
-180 l0 -174 -617 2 -618 3 -3 169 c-2 129 1 171 10 178 15 9 1188 11 1212 2z
m1790 0 c14 -5 16 -31 16 -180 l0 -174 -620 0 -620 0 0 174 c0 130 3 176 13
179 18 8 1192 8 1211 1z m-1774 -688 c0 -149 -2 -175 -16 -180 -9 -3 -282 -6
-608 -6 -447 0 -595 3 -604 12 -13 13 -18 329 -5 341 3 4 282 7 620 7 l613 0
0 -174z m1790 0 c0 -149 -2 -175 -16 -180 -20 -8 -1188 -8 -1208 0 -14 5 -16
31 -16 180 l0 174 620 0 620 0 0 -174z"/>
</g>
</svg>
