<?xml version="1.0" standalone="no"?>
<!DOCTYPE svg PUBLIC "-//W3C//DTD SVG 20010904//EN"
 "http://www.w3.org/TR/2001/REC-SVG-20010904/DTD/svg10.dtd">
<svg version="1.0" xmlns="http://www.w3.org/2000/svg"
 width="512.000000pt" height="512.000000pt" viewBox="0 0 512.000000 512.000000"
 preserveAspectRatio="xMidYMid meet">

<g transform="translate(0.000000,512.000000) scale(0.100000,-0.100000)"
fill="#000000" stroke="none">
<path d="M2500 5114 c-19 -2 -100 -11 -180 -20 -291 -31 -673 -106 -869 -170
-206 -67 -411 -183 -534 -302 -207 -200 -362 -487 -443 -819 -31 -127 -49
-179 -109 -317 -85 -196 -74 -273 60 -406 41 -41 75 -83 75 -92 0 -62 -234
-454 -390 -653 -73 -93 -110 -166 -110 -215 1 -82 70 -166 192 -230 101 -53
128 -76 128 -112 0 -18 -21 -71 -47 -122 -33 -65 -46 -104 -47 -135 -1 -41 3
-47 58 -97 55 -51 58 -56 48 -79 -7 -14 -12 -48 -12 -74 0 -61 21 -89 113
-148 l69 -44 -6 -72 c-18 -217 -18 -232 -1 -296 45 -174 147 -269 300 -279 60
-3 94 2 240 42 182 48 298 83 464 140 l104 36 27 -20 c108 -77 237 -296 300
-511 14 -48 31 -82 48 -98 l26 -24 1098 5 c1070 4 1098 5 1119 24 53 48 39
107 -64 270 -123 195 -212 506 -247 867 -15 151 0 326 40 481 54 208 124 343
310 596 59 80 124 172 145 205 99 154 196 413 176 468 -15 39 -54 61 -95 53
-19 -4 -39 -12 -45 -19 -5 -7 -26 -60 -45 -118 -57 -176 -114 -275 -296 -520
-175 -234 -256 -393 -314 -619 -39 -148 -50 -242 -49 -410 1 -338 108 -789
244 -1024 21 -38 37 -71 35 -74 -3 -2 -436 -6 -963 -10 l-958 -5 -19 59 c-41
132 -147 327 -239 437 -22 26 -38 50 -35 52 2 2 82 32 178 66 96 34 202 75
235 92 202 101 314 237 319 384 1 64 -29 103 -79 103 -39 0 -85 -34 -85 -61 0
-106 -80 -200 -231 -272 -171 -82 -1027 -365 -1260 -417 -113 -25 -176 10
-209 117 -24 78 -25 119 -4 215 16 76 13 138 -11 194 -18 44 -79 109 -120 128
-40 19 -43 31 -15 66 19 24 26 73 14 104 -3 8 -31 34 -62 57 -32 23 -59 44
-61 45 -2 2 13 37 34 78 90 178 46 314 -132 404 -67 35 -143 88 -143 101 0 5
46 71 102 147 137 186 227 329 320 511 66 128 78 160 78 200 0 73 -39 144
-120 222 -84 80 -85 91 -34 206 58 129 91 225 123 353 56 221 117 369 215 516
209 313 450 458 934 561 360 76 742 121 950 112 68 -3 135 -2 148 3 30 12 54
64 45 98 -4 14 -19 35 -34 46 -24 18 -44 20 -194 22 -93 1 -184 0 -203 -2z"/>
<path d="M3860 5101 c-54 -28 -76 -69 -95 -180 -10 -55 -21 -104 -24 -109 -3
-5 -27 -18 -52 -30 l-47 -20 -88 59 c-146 97 -200 99 -289 9 l-49 -50 -132 0
c-143 0 -184 -9 -227 -49 -41 -37 -45 -47 -72 -183 -34 -167 -34 -168 -46
-168 -7 0 -38 -12 -70 -26 l-59 -27 -124 82 c-188 125 -223 123 -372 -21 -104
-100 -124 -134 -124 -206 0 -46 7 -60 84 -177 l83 -126 -30 -74 -30 -73 -139
-27 c-150 -30 -187 -47 -225 -104 -21 -32 -23 -45 -23 -184 0 -136 2 -153 22
-189 32 -57 71 -75 224 -106 88 -18 140 -33 145 -42 4 -8 19 -40 32 -71 l25
-56 -84 -128 c-77 -116 -84 -131 -84 -176 0 -74 18 -105 122 -206 100 -98 126
-113 189 -113 48 0 73 13 205 101 l102 68 68 -29 c38 -16 72 -35 76 -42 4 -7
19 -71 33 -142 42 -214 68 -236 289 -236 233 0 241 8 306 331 l11 56 66 28
c36 16 71 28 77 28 6 0 67 -37 134 -81 113 -75 128 -82 174 -82 27 0 59 5 71
11 12 6 68 57 125 113 154 152 156 182 30 373 l-80 122 29 73 30 72 136 28
c148 29 184 44 216 84 l21 27 77 -51 c134 -86 169 -81 296 45 131 131 134 168
28 326 l-59 89 21 49 c23 54 18 52 142 74 165 30 195 69 195 247 0 178 -27
210 -206 246 -59 12 -108 23 -109 24 -1 2 -12 24 -23 49 l-20 47 59 88 c106
159 103 202 -25 330 -128 127 -165 131 -322 29 l-96 -63 -47 20 c-25 11 -47
22 -49 23 -1 1 -12 50 -24 109 -36 181 -66 206 -248 206 -93 0 -122 -4 -150
-19z m241 -273 c14 -70 31 -131 41 -144 10 -12 42 -30 71 -40 28 -9 73 -27 99
-40 69 -35 92 -31 183 29 147 99 124 94 178 39 l47 -47 -70 -105 c-78 -117
-82 -136 -46 -208 13 -26 31 -71 40 -99 10 -29 28 -61 40 -71 13 -10 74 -27
144 -41 l122 -23 0 -67 0 -67 -120 -23 c-74 -14 -130 -31 -144 -42 -14 -11
-32 -43 -42 -72 -9 -28 -27 -73 -40 -99 -37 -73 -32 -92 46 -208 l71 -104 -48
-48 -48 -47 -91 61 -92 61 -4 73 c-4 56 -11 82 -30 112 l-25 38 33 39 c41 49
89 145 103 205 17 75 13 201 -9 272 -37 122 -134 239 -247 300 -98 54 -225 71
-352 48 -31 -5 -73 -12 -93 -15 -24 -4 -82 -35 -159 -86 l-121 -80 -67 27
c-36 15 -69 30 -74 34 -4 3 -19 66 -34 139 l-26 132 29 30 29 29 105 -70 c117
-78 136 -82 208 -46 26 13 71 31 99 40 29 10 61 28 72 42 11 14 28 70 42 144
l23 120 67 0 67 0 23 -122z m-894 -388 c37 -184 38 -187 126 -215 28 -10 85
-33 126 -52 48 -23 82 -32 97 -29 13 4 83 47 156 96 l132 90 72 -71 72 -72
-94 -141 c-52 -77 -94 -151 -94 -163 0 -12 16 -53 35 -92 19 -38 35 -72 35
-75 0 -26 46 -118 63 -128 12 -6 92 -26 177 -43 l155 -31 3 -100 3 -101 -163
-32 c-119 -24 -169 -38 -185 -53 -12 -12 -32 -51 -44 -87 -12 -36 -35 -92 -50
-123 -16 -32 -29 -66 -29 -77 0 -11 41 -81 90 -155 50 -75 90 -140 90 -144 0
-4 -31 -38 -69 -76 l-69 -68 -135 91 c-95 64 -143 91 -164 91 -17 0 -68 -18
-114 -39 -46 -21 -98 -42 -115 -45 -60 -13 -74 -41 -108 -213 l-32 -158 -101
-3 c-98 -3 -101 -2 -106 20 -3 13 -17 84 -32 158 -15 74 -33 144 -40 156 -8
12 -45 32 -92 49 -43 15 -99 38 -125 51 -77 39 -93 34 -245 -67 l-136 -91 -70
70 -71 71 92 138 c60 90 92 148 92 166 0 15 -13 53 -29 85 -15 31 -38 88 -51
125 -13 42 -30 73 -44 83 -13 8 -93 28 -179 46 l-157 31 0 101 0 101 162 32
c91 19 169 40 179 48 9 9 29 51 44 93 15 42 38 97 51 121 39 70 34 87 -66 236
-49 74 -90 138 -90 143 0 4 31 38 69 76 l69 68 141 -96 c78 -53 150 -96 161
-96 11 0 51 15 88 34 37 18 92 41 122 51 80 25 93 44 119 176 13 63 27 136 33
162 l10 48 101 -3 101 -3 33 -165z m971 -131 c67 -33 119 -87 154 -158 19 -38
23 -62 23 -141 0 -114 -22 -168 -98 -242 -58 -58 -80 -64 -154 -46 l-57 14
-30 71 -29 72 81 120 c46 69 84 136 88 156 9 49 -10 107 -47 150 -27 31 -29
35 -12 35 11 0 47 -14 81 -31z"/>
<path d="M2922 3990 c-105 -28 -187 -75 -268 -155 -119 -119 -175 -253 -175
-425 -1 -326 264 -590 589 -590 103 0 169 14 257 54 244 112 386 394 331 656
-71 336 -406 546 -734 460z m240 -161 c215 -45 367 -266 330 -480 -24 -141
-112 -259 -239 -321 -64 -31 -74 -33 -178 -33 -103 0 -114 2 -177 32 -113 53
-196 146 -233 262 -28 85 -18 217 21 301 88 185 277 280 476 239z"/>
<path d="M3035 3488 c-78 -42 -49 -158 39 -158 47 0 90 50 82 94 -11 59 -72
91 -121 64z"/>
<path d="M1685 4636 c-290 -75 -472 -178 -605 -343 -139 -173 -211 -319 -270
-552 -12 -46 -18 -87 -13 -91 4 -4 35 -12 68 -19 33 -7 68 -15 78 -17 12 -4
17 0 17 14 0 37 61 236 95 310 44 95 129 222 193 288 106 110 263 190 484 245
68 17 131 38 142 47 47 43 37 114 -20 138 -18 8 -35 14 -36 14 -2 -1 -61 -16
-133 -34z"/>
<path d="M719 3397 c-62 -48 -40 -137 37 -153 44 -9 94 35 94 82 0 65 -81 109
-131 71z"/>
</g>
</svg>
