<?xml version="1.0" standalone="no"?>
<!DOCTYPE svg PUBLIC "-//W3C//DTD SVG 20010904//EN"
 "http://www.w3.org/TR/2001/REC-SVG-20010904/DTD/svg10.dtd">
<svg version="1.0" xmlns="http://www.w3.org/2000/svg"
 width="512.000000pt" height="512.000000pt" viewBox="0 0 512.000000 512.000000"
 preserveAspectRatio="xMidYMid meet">

<g transform="translate(0.000000,512.000000) scale(0.100000,-0.100000)"
fill="#000000" stroke="none">
<path d="M482 5100 c-167 -44 -307 -159 -380 -310 -23 -47 -46 -114 -52 -150
-7 -46 -10 -539 -8 -1655 l3 -1590 22 -66 c47 -136 159 -268 282 -333 133 -69
130 -69 694 -73 l507 -4 0 85 0 86 -475 0 c-310 0 -492 4 -527 11 -133 28
-243 115 -301 236 l-32 68 -3 763 -2 762 265 0 c297 0 322 4 345 60 11 27 11
39 -4 86 -42 134 -9 271 86 360 192 179 491 89 554 -168 17 -70 15 -100 -18
-215 -9 -32 -9 -48 0 -68 23 -50 56 -55 352 -55 l270 0 0 -250 0 -251 -49 7
c-71 9 -175 -12 -261 -53 -256 -123 -355 -438 -218 -695 34 -65 136 -166 198
-198 l39 -20 26 57 c42 94 42 95 -10 129 -54 33 -104 98 -130 166 -24 66 -17
196 14 256 34 66 97 128 160 159 48 23 68 27 141 27 53 -1 101 -7 128 -17 32
-12 49 -14 69 -6 52 20 52 20 53 367 l0 322 214 0 213 0 1 -82 c1 -195 106
-363 278 -448 34 -16 75 -33 92 -36 30 -6 30 -6 42 52 6 33 14 69 17 81 4 16
0 24 -13 28 -147 44 -248 174 -248 320 0 42 7 91 18 123 21 61 12 100 -27 121
-15 7 -116 12 -302 14 l-280 2 -3 210 -2 210 87 1 c283 2 503 222 503 504 0
137 -47 247 -150 351 -102 103 -213 149 -362 149 l-78 0 0 210 0 210 768 -2
767 -3 66 -31 c114 -54 190 -138 228 -252 20 -60 21 -80 21 -812 l0 -750 -285
0 -286 0 -24 -25 c-29 -28 -31 -55 -10 -115 8 -23 15 -58 15 -76 l0 -34 85 0
85 0 0 39 0 40 271 3 271 3 24 28 25 29 -3 831 -3 832 -26 66 c-39 101 -76
158 -148 229 -78 77 -160 123 -267 150 -75 20 -116 20 -1658 19 -1524 0 -1584
-1 -1654 -19z m1578 -439 l0 -290 26 -20 c32 -25 55 -26 118 -5 70 24 185 15
251 -18 64 -33 120 -89 153 -153 37 -72 42 -188 13 -266 -30 -79 -88 -141
-169 -181 -56 -28 -78 -33 -137 -33 -40 0 -94 8 -127 18 -51 17 -59 17 -86 3
-16 -8 -32 -23 -36 -31 -3 -9 -6 -142 -6 -296 l0 -279 -214 0 -214 0 -1 88 c0
142 -46 249 -150 353 -76 75 -146 112 -258 137 -155 33 -329 -21 -446 -140
-103 -104 -147 -212 -147 -360 l0 -78 -210 0 -210 0 0 748 c0 709 1 752 19
804 44 128 139 223 266 267 58 20 80 20 813 21 l752 0 0 -289z"/>
<path d="M3535 2645 c-154 -69 -288 -133 -298 -143 -27 -27 -24 -68 12 -149
41 -94 53 -157 41 -226 -18 -111 -96 -213 -198 -260 -71 -33 -198 -31 -272 4
-124 58 -200 186 -200 335 0 37 -37 74 -76 74 -22 0 -547 -192 -621 -226 -17
-9 -37 -29 -44 -45 -11 -28 -4 -51 95 -319 59 -159 105 -294 101 -300 -3 -5
-14 -10 -23 -10 -44 0 -167 -72 -228 -134 -99 -102 -143 -212 -144 -357 0
-137 53 -260 154 -357 152 -146 361 -182 560 -98 22 9 41 14 43 12 3 -2 38
-93 79 -203 76 -202 100 -243 145 -243 11 0 194 66 407 146 213 80 404 152
425 160 l37 13 20 -39 c29 -56 107 -130 178 -168 70 -37 67 -39 96 60 21 72
20 75 -8 82 -30 7 -129 102 -124 117 3 9 142 67 225 93 19 6 25 -1 55 -61 47
-97 158 -207 258 -255 72 -34 126 -50 218 -62 l42 -6 0 84 0 84 -61 11 c-125
22 -219 85 -290 194 -36 56 -69 161 -69 223 0 22 -34 62 -169 199 -178 181
-193 204 -177 271 9 36 58 80 96 88 62 12 95 -14 402 -322 l298 -297 57 58 58
57 -86 87 -86 88 13 50 c19 79 17 210 -6 290 -11 39 -53 158 -94 265 -40 107
-72 197 -70 198 5 7 488 -329 528 -367 79 -74 76 -45 76 -688 l0 -573 85 0 86
0 -3 593 -3 593 -38 76 c-26 53 -54 91 -91 125 -29 26 -207 154 -396 283 -188
129 -348 244 -355 255 -7 11 -72 180 -144 375 -85 228 -139 361 -153 373 -11
9 -34 17 -52 17 -18 0 -149 -53 -311 -125z m522 -760 c238 -635 255 -685 260
-760 l5 -80 -159 157 c-181 180 -216 202 -324 202 -158 0 -289 -130 -289 -289
0 -105 18 -135 193 -312 l160 -162 -29 -12 c-249 -96 -1141 -429 -1150 -429
-6 0 -49 99 -94 220 -55 147 -90 226 -104 235 -36 26 -77 18 -132 -23 -109
-82 -247 -94 -364 -31 -177 94 -230 309 -121 481 54 84 171 148 274 148 62 0
107 34 107 83 0 7 -50 146 -111 310 -64 171 -108 302 -103 306 5 5 88 38 184
74 96 36 182 68 191 72 13 5 18 -2 23 -27 18 -98 117 -234 214 -297 84 -54
155 -74 267 -75 113 -1 175 15 265 70 199 119 290 370 216 589 -14 39 -21 71
-18 73 4 1 86 38 182 82 96 43 181 78 189 77 8 -1 112 -267 268 -682z"/>
</g>
</svg>
